<svg xmlns="http://www.w3.org/2000/svg" viewBox="0 0 24 24" fill="currentColor">
  <circle cx="12" cy="12" r="10" fill="#E60023"/>
  <path d="M12 5.5c-3.59 0-6.5 2.91-6.5 6.5 0 2.76 1.72 5.12 4.15 6.07-.06-.52-.11-1.32.02-1.89.12-.51.77-3.27.77-3.27s-.2-.39-.2-.97c0-.91.53-1.59 1.18-1.59.56 0 .83.42.83.92 0 .56-.36 1.4-.54 2.18-.15.65.32 1.18.96 1.18 1.15 0 2.03-1.21 2.03-2.96 0-1.55-1.11-2.63-2.7-2.63-1.84 0-2.92 1.38-2.92 2.81 0 .56.21 1.15.48 1.48.05.06.06.12.04.18-.05.2-.16.64-.18.73-.03.12-.1.14-.22.09-.82-.38-1.33-1.59-1.33-2.56 0-2.08 1.51-4 4.36-4 2.29 0 4.07 1.63 4.07 3.81 0 2.27-1.44 4.11-3.43 4.11-.67 0-1.3-.35-1.52-.76l-.41 1.57c-.15.58-.56 1.3-.83 1.74.63.19 1.29.3 1.98.3 3.59 0 6.5-2.91 6.5-6.5S15.59 5.5 12 5.5z" fill="white"/>
</svg>
