<svg xmlns="http://www.w3.org/2000/svg" viewBox="0 0 24 24" fill="currentColor">
  <circle cx="12" cy="12" r="10" fill="#B92B27"/>
  <path d="M13.32 17.93c-.85.74-1.79 1.07-2.91 1.07-1.82 0-3.08-.86-3.74-2.01.59.12 1.19.18 1.79.18 1.74 0 3.26-.58 4.34-1.65.42.56.96 1.38 1.61 2.16-.34.09-.7.17-1.09.25zm-1.17-5.11c.07-.31.1-.64.1-.99 0-2.62-1.57-4.83-4.72-4.83-3.14 0-4.72 2.21-4.72 4.83 0 2.63 1.57 4.84 4.72 4.84.93 0 1.76-.18 2.46-.52.35.47.75.93 1.19 1.35l1.39-.86c-.53-.47-1.02-.97-1.42-1.47.68-.66 1.14-1.46 1.36-2.35h-.36zm-4.62 2.04c-1.76 0-2.63-1.35-2.63-3.04 0-1.68.87-3.03 2.63-3.03 1.77 0 2.63 1.35 2.63 3.03 0 1.69-.86 3.04-2.63 3.04z" fill="white"/>
</svg>
