<svg xmlns="http://www.w3.org/2000/svg" viewBox="0 0 24 24" fill="currentColor">
  <circle cx="12" cy="12" r="10" fill="#FF4500"/>
  <path d="M16.67 12.17c0-.61-.49-1.1-1.1-1.1-.29 0-.56.11-.76.31-.75-.54-1.78-.89-2.93-.94l.5-2.34 1.62.35c.02.52.44.93.97.93.54 0 .97-.44.97-.97 0-.54-.44-.97-.97-.97-.39 0-.72.23-.88.56l-1.81-.39c-.11-.02-.21.05-.24.16l-.56 2.62c-1.18.04-2.23.39-2.99.94-.2-.2-.47-.31-.76-.31-.61 0-1.1.49-1.1 1.1 0 .45.27.83.65 1-.02.13-.03.26-.03.39 0 1.99 2.32 3.6 5.18 3.6s5.18-1.61 5.18-3.6c0-.13-.01-.26-.03-.39.37-.17.65-.55.65-1zM8.5 13.17c0-.54.44-.97.97-.97.54 0 .97.44.97.97 0 .54-.44.97-.97.97-.54 0-.97-.44-.97-.97zm5.43 2.54c-.67.67-1.93.72-1.93.72s-1.26-.05-1.93-.72c-.1-.1-.1-.26 0-.35.1-.1.26-.1.35 0 .42.42 1.04.48 1.58.48.54 0 1.16-.06 1.58-.48.1-.1.26-.1.35 0 .1.09.1.25 0 .35zm-.15-1.6c-.54 0-.97-.44-.97-.97 0-.54.44-.97.97-.97.54 0 .97.44.97.97 0 .54-.44.97-.97.97z" fill="white"/>
</svg>
